<?xml version="1.0" encoding="UTF-8"?><svg id="Layer_1" xmlns="http://www.w3.org/2000/svg" viewBox="0 0 23.1 120.01"><defs><style>.cls-1{fill:#fff;}</style></defs><path class="cls-1" d="m6.66,100.34h-.03v-1.75h.03c.16.35.44.33.95.18l5.33-1.6-5.95-1.71v-.54l5.99-1.75-5.37-1.6c-.52-.15-.8-.15-.95.19h-.03v-1.34h.03c.14.26.42.43.95.59l6.11,1.87c.19.06.4.08.53.08v.64l-5.96,1.76,5.44,1.58c.19.06.4.09.52.08v.61l-6.63,2.08c-.52.17-.8.33-.97.61Z"/><path class="cls-1" d="m11.84,90.54c-1.61,0-2.66-1.04-2.66-2.43s.95-2.24,2.29-2.26v3.86c.08,0,.15,0,.23,0,1.23,0,2.2-.54,2.2-1.71,0-.98-.66-1.52-1.5-1.72v-.45c1.13.21,2.02.98,2.02,2.33s-1,2.38-2.58,2.38Zm-.76-3.87c-.86.06-1.53.55-1.53,1.45,0,.85.61,1.39,1.53,1.55v-3Z"/><path class="cls-1" d="m11.84,85c-1.61,0-2.66-1.04-2.66-2.43s.95-2.24,2.29-2.26v3.86c.08,0,.15,0,.23,0,1.23,0,2.2-.54,2.2-1.71,0-.98-.66-1.52-1.5-1.72v-.45c1.13.21,2.02.98,2.02,2.33s-1,2.38-2.58,2.38Zm-.76-3.87c-.86.06-1.53.55-1.53,1.45,0,.85.61,1.39,1.53,1.55v-3Z"/><path class="cls-1" d="m11.63,78.25h1.34c.69,0,1.01-.05,1.25-.41h.03v1.64h-.03c-.24-.37-.55-.42-1.25-.42h-5.29c-.63,0-.91.05-1.12.35h-.04l-.15-1.18.02-.06c.3.06.5.08,1.29.08h3.68l-1.31-1.59c-.27-.33-.55-.44-.67-.42h-.03v-1.17h.07c.13.33.3.59.64,1.01l1.27,1.57,2.85-2.8h.07v.97l-2.62,2.44Z"/><path class="cls-1" d="m14.22,74.39c-.24-.37-.55-.42-1.25-.42h-5.29c-.62,0-.91.07-1.13.37h-.03l-.15-1.25h.03c.29.04.49.06,1.28.06h5.29c.69,0,1.01-.04,1.25-.41h.03v1.65h-.03Z"/><path class="cls-1" d="m16.64,72.33h-.7c.07-.15.11-.39.11-.66,0-.73-.48-1.19-1.8-1.71v.2l-3.72,1.43c-.58.22-.95.37-1.15.67h-.04v-1.53h.04c.18.27.5.19,1.12-.03l2.91-1.06-2.91-1.04c-.6-.22-.96-.26-1.12.02h-.04v-1.22h.04c.19.26.51.44,1.12.67l3.75,1.43c1.77.67,2.48,1.27,2.48,2.24,0,.23-.04.43-.09.58Z"/><path class="cls-1" d="m6.63,64.95v-5.72h.78c-.24,1.04-.38,1.73-.38,2.32v.1h5.95c.69,0,1.01-.05,1.25-.44h.03v1.77h-.03c-.24-.39-.55-.44-1.25-.44h-5.95v.09c0,.58.14,1.29.38,2.33h-.78Z"/><path class="cls-1" d="m14.22,59.15c-.24-.36-.55-.4-1.25-.4h-2.36c-.74,0-1.01.03-1.22.36h-.03l-.07-1.18h3.68c.69,0,1.01-.04,1.25-.4h.03v1.62h-.03Zm-7.22-.35v-.87h1.07v.87h-1.07Z"/><path class="cls-1" d="m14.22,56.66c-.24-.35-.55-.4-1.25-.4h-2.34c-.73,0-1.02.05-1.25.4h-.04v-1.35c.24.11.5.14,1.1.15-.68-.3-1.26-.91-1.26-1.83,0-.81.39-1.34,1.34-1.48-.72-.28-1.34-.9-1.34-1.86s.53-1.51,1.85-1.51h1.93c.69,0,1.01-.04,1.25-.38h.03v1.55h-.03c-.24-.32-.55-.36-1.25-.36h-1.92c-.95,0-1.36.34-1.36,1.05,0,.8.61,1.3,1.34,1.49h1.94c.69,0,1.01-.04,1.25-.38h.03v1.55h-.03c-.24-.33-.55-.36-1.25-.36h-1.92c-.95,0-1.36.34-1.36,1.05,0,.8.61,1.3,1.34,1.49h1.94c.69,0,1.01-.04,1.25-.38h.03v1.58h-.03Z"/><path class="cls-1" d="m11.84,47.58c-1.61,0-2.66-1.04-2.66-2.43s.95-2.24,2.29-2.26v3.86c.08,0,.15,0,.23,0,1.23,0,2.2-.54,2.2-1.71,0-.98-.66-1.52-1.5-1.72v-.45c1.13.21,2.02.98,2.02,2.33s-1,2.38-2.58,2.38Zm-.76-3.87c-.86.06-1.53.55-1.53,1.45,0,.85.61,1.39,1.53,1.55v-3Z"/><path class="cls-1" d="m6.63,39.87v-5.72h.78c-.24,1.04-.38,1.73-.38,2.32v.1h5.95c.69,0,1.01-.05,1.25-.44h.03v1.77h-.03c-.24-.39-.55-.44-1.25-.44h-5.95v.09c0,.58.14,1.29.38,2.33h-.78Z"/><path class="cls-1" d="m14.22,34.5c-.24-.36-.55-.4-1.25-.4h-2.34c-.73,0-1.02.04-1.25.4h-.04v-1.37c.26.12.55.15,1.29.15h.21c-.71-.14-1.6-.8-1.61-2.05h.73c-.06,1.41.74,2.04,1.71,2.05h1.34c.67,0,.98-.05,1.21-.44h.03v1.66h-.03Z"/><path class="cls-1" d="m13.1,30.96c-.89,0-1.22-.68-1.57-1.9-.26-.93-.4-1.44-1.1-1.45-.56,0-.88.36-.88,1.02,0,.69.4,1.37,1.4,1.38v.78c-1.19-.07-1.78-1.1-1.78-2.23,0-.99.42-1.74,1.56-1.74h2.33c.59,0,.82-.18.82-.47,0-.15-.04-.27-.13-.38h.3c.17.18.28.4.28.72,0,.53-.37.93-1.2.93h-.23c.78.25,1.48.89,1.48,1.92,0,.83-.42,1.44-1.28,1.44Zm.76-1.67c0-1-.9-1.68-2.08-1.68h-.56c.31.16.44.61.66,1.26.26.84.5,1.31,1.14,1.31s.86-.4.86-.89Z"/><path class="cls-1" d="m11.81,25.6c-1.64,0-2.63-1.04-2.63-2.45,0-1.31.84-2.12,1.82-2.25v.75c-.68.11-1.44.49-1.44,1.48,0,1.1.92,1.65,2.13,1.65s2.23-.53,2.23-1.74c0-1.01-.71-1.55-1.64-1.73v-.45c1.21.18,2.15.98,2.15,2.37s-1.01,2.38-2.61,2.38Z"/><path class="cls-1" d="m11.63,18.93h1.34c.69,0,1.01-.05,1.25-.41h.03v1.64h-.03c-.24-.37-.55-.42-1.25-.42h-5.29c-.63,0-.91.05-1.12.35h-.04l-.15-1.18.02-.06c.3.06.5.08,1.29.08h3.68l-1.31-1.59c-.27-.33-.55-.44-.67-.42h-.03v-1.17h.07c.13.33.3.59.64,1.01l1.27,1.57,2.85-2.8h.07v.97l-2.62,2.44Z"/><path class="cls-1" d="m11.84,15.35c-1.61,0-2.66-1.04-2.66-2.43s.95-2.24,2.29-2.26v3.86c.08,0,.15,0,.23,0,1.23,0,2.2-.54,2.2-1.71,0-.98-.66-1.52-1.5-1.72v-.45c1.13.21,2.02.98,2.02,2.33s-1,2.38-2.58,2.38Zm-.76-3.87c-.86.06-1.53.55-1.53,1.45,0,.85.61,1.39,1.53,1.55v-3Z"/><path class="cls-1" d="m14.22,9.81c-.24-.36-.55-.4-1.25-.4h-2.34c-.73,0-1.02.04-1.25.4h-.04v-1.37c.26.12.55.15,1.29.15h.21c-.71-.14-1.6-.8-1.61-2.05h.73c-.06,1.41.74,2.04,1.71,2.05h1.34c.67,0,.98-.05,1.21-.44h.03v1.66h-.03Z"/><circle class="cls-1" cx="11.55" cy="109.16" r="4.32"/></svg>